# Blender v2.79 (sub 0) OBJ File: 'button_rings.blend'
# www.blender.org
mtllib estop_ring.mtl
o Estop_LED_Button_rings_(1)
v -3.385827 -5.612382 7.127603
v -3.385827 -5.627470 7.190497
v -3.385827 -5.602165 7.185655
v -3.385827 -5.572607 7.176570
v -3.385827 -5.583399 7.116816
v -3.385827 -5.544672 7.163297
v -3.385827 -5.559778 7.103632
v -3.385827 -5.522748 7.149773
v -3.385827 -5.538547 7.086844
v -3.385827 -5.498641 7.130427
v -3.385827 -5.522514 7.070093
v -3.385827 -5.473885 7.104187
v -3.385827 -5.506680 7.048163
v -3.385827 -5.453620 7.074334
v -3.385827 -5.494538 7.023988
v -3.385827 -5.439944 7.046601
v -3.385827 -5.486030 6.998310
v -3.385827 -5.431484 7.022263
v -3.385827 -5.425543 6.997193
v -3.385827 -5.481719 6.971596
v -3.385827 -5.421653 6.956149
v -3.385827 -5.481327 6.944552
v -3.385827 -5.425543 6.915103
v -3.385827 -5.486030 6.913986
v -3.385827 -5.432892 6.885069
v -3.385827 -5.497450 6.881134
v -3.385827 -5.442054 6.860992
v -3.385827 -5.453624 6.837956
v -3.385827 -5.513105 6.854466
v -3.385827 -5.467779 6.816436
v -3.385827 -5.530196 6.833487
v -3.385827 -5.484055 6.796457
v -3.385827 -5.502527 6.778513
v -3.385827 -5.556513 6.810746
v -3.385827 -5.522742 6.762528
v -3.385827 -5.549176 6.746487
v -3.385827 -5.586892 6.793792
v -3.385827 -5.572685 6.735938
v -3.385827 -5.616166 6.783856
v -3.385827 -5.597153 6.727831
v -3.385827 -5.627478 6.721800
v -3.385827 -5.646722 6.779152
v -3.385827 -5.653165 6.719929
v -3.385827 -5.681490 6.780165
v -3.385827 -5.684062 6.721053
v -3.385827 -5.719491 6.727830
v -3.385827 -5.715346 6.788189
v -3.385827 -5.743959 6.735938
v -3.385827 -5.743645 6.800642
v -3.385827 -5.767464 6.746485
v -3.385827 -5.793901 6.762527
v -3.385827 -5.772421 6.820177
v -3.385827 -5.821868 6.785310
v -3.385827 -5.799148 6.848096
v -3.385827 -5.842597 6.808266
v -3.385827 -5.857677 6.829151
v -3.385827 -5.817407 6.877697
v -3.385827 -5.876978 6.865583
v -3.385827 -5.826126 6.899189
v -3.385827 -5.832289 6.921539
v -3.385827 -5.889091 6.904994
v -3.385827 -5.893795 6.935557
v -3.385827 -5.835431 6.948411
v -3.385827 -5.894318 6.971614
v -3.385827 -5.834645 6.975454
v -3.385827 -5.889091 7.007304
v -3.385827 -5.828614 7.005778
v -3.385827 -5.880435 7.037000
v -3.385827 -5.820521 7.027523
v -3.385827 -5.867980 7.065303
v -3.385827 -5.809967 7.048162
v -3.385827 -5.849043 7.096000
v -3.385827 -5.794134 7.070091
v -3.385827 -5.821867 7.126988
v -3.385827 -5.778095 7.086847
v -3.385827 -5.760002 7.101368
v -3.385827 -5.793896 7.149774
v -3.385827 -5.736773 7.115233
v -3.385827 -5.771966 7.163301
v -3.385827 -5.744040 7.176570
v -3.385827 -5.704263 7.127603
v -3.385827 -5.714479 7.185655
v -3.385827 -5.689175 7.190497
v -3.385827 -5.673779 7.132751
v -3.385827 -5.658323 7.192519
v -3.385827 -5.646725 7.133146
vn -1.0000 0.0000 0.0000
usemtl None
s 1
f 2//1 3//1 1//1
f 3//1 4//1 1//1
f 1//1 4//1 5//1
f 4//1 6//1 5//1
f 5//1 6//1 7//1
f 6//1 8//1 7//1
f 7//1 8//1 9//1
f 8//1 10//1 9//1
f 9//1 10//1 11//1
f 10//1 12//1 11//1
f 11//1 12//1 13//1
f 12//1 14//1 13//1
f 13//1 14//1 15//1
f 14//1 16//1 15//1
f 15//1 16//1 17//1
f 16//1 18//1 17//1
f 18//1 19//1 17//1
f 17//1 19//1 20//1
f 19//1 21//1 20//1
f 20//1 21//1 22//1
f 21//1 23//1 22//1
f 22//1 23//1 24//1
f 23//1 25//1 24//1
f 24//1 25//1 26//1
f 25//1 27//1 26//1
f 27//1 28//1 26//1
f 26//1 28//1 29//1
f 28//1 30//1 29//1
f 29//1 30//1 31//1
f 30//1 32//1 31//1
f 32//1 33//1 31//1
f 31//1 33//1 34//1
f 33//1 35//1 34//1
f 35//1 36//1 34//1
f 34//1 36//1 37//1
f 36//1 38//1 37//1
f 37//1 38//1 39//1
f 38//1 40//1 39//1
f 40//1 41//1 39//1
f 39//1 41//1 42//1
f 41//1 43//1 42//1
f 42//1 43//1 44//1
f 43//1 45//1 44//1
f 45//1 46//1 44//1
f 44//1 46//1 47//1
f 46//1 48//1 47//1
f 47//1 48//1 49//1
f 48//1 50//1 49//1
f 50//1 51//1 49//1
f 49//1 51//1 52//1
f 51//1 53//1 52//1
f 52//1 53//1 54//1
f 53//1 55//1 54//1
f 55//1 56//1 54//1
f 54//1 56//1 57//1
f 56//1 58//1 57//1
f 57//1 58//1 59//1
f 59//1 58//1 60//1
f 58//1 61//1 60//1
f 61//1 62//1 60//1
f 60//1 62//1 63//1
f 62//1 64//1 63//1
f 63//1 64//1 65//1
f 64//1 66//1 65//1
f 65//1 66//1 67//1
f 66//1 68//1 67//1
f 67//1 68//1 69//1
f 68//1 70//1 69//1
f 69//1 70//1 71//1
f 70//1 72//1 71//1
f 71//1 72//1 73//1
f 72//1 74//1 73//1
f 73//1 74//1 75//1
f 75//1 74//1 76//1
f 74//1 77//1 76//1
f 76//1 77//1 78//1
f 77//1 79//1 78//1
f 79//1 80//1 78//1
f 78//1 80//1 81//1
f 80//1 82//1 81//1
f 82//1 83//1 81//1
f 81//1 83//1 84//1
f 83//1 85//1 84//1
f 84//1 85//1 86//1
f 85//1 2//1 86//1
f 86//1 2//1 1//1
