# Blender v2.79 (sub 0) OBJ File: 'button_rings.blend'
# www.blender.org
mtllib start_stop_ring.mtl
o Start_Stop_LED_Button_rings_(1).001
v -3.385827 -5.612382 8.247603
v -3.385827 -5.627463 8.310495
v -3.385827 -5.592137 8.303201
v -3.385827 -5.583399 8.236815
v -3.385827 -5.553722 8.288261
v -3.385827 -5.559774 8.223629
v -3.385827 -5.522748 8.269773
v -3.385827 -5.535666 8.204280
v -3.385827 -5.498641 8.250426
v -3.385827 -5.473883 8.224186
v -3.385827 -5.517685 8.184077
v -3.385827 -5.504797 8.164790
v -3.385827 -5.453623 8.194341
v -3.385827 -5.494539 8.143990
v -3.385827 -5.442056 8.171308
v -3.385827 -5.432892 8.147228
v -3.385827 -5.486031 8.118313
v -3.385827 -5.425543 8.117193
v -3.385827 -5.481327 8.087745
v -3.385827 -5.422552 8.091596
v -3.385827 -5.422176 8.065855
v -3.385827 -5.481719 8.060701
v -3.385827 -5.425543 8.035104
v -3.385827 -5.486030 8.033986
v -3.385827 -5.432893 8.005068
v -3.385827 -5.497450 8.001135
v -3.385827 -5.442056 7.980990
v -3.385827 -5.453622 7.957959
v -3.385827 -5.513105 7.974466
v -3.385827 -5.473880 7.928116
v -3.385827 -5.527623 7.956379
v -3.385827 -5.498634 7.901878
v -3.385827 -5.550263 7.935329
v -3.385827 -5.522747 7.882525
v -3.385827 -5.576460 7.918904
v -3.385827 -5.553722 7.864036
v -3.385827 -5.601305 7.908187
v -3.385827 -5.592140 7.849096
v -3.385827 -5.623746 7.902347
v -3.385827 -5.627474 7.841800
v -3.385827 -5.646722 7.899152
v -3.385827 -5.653165 7.839929
v -3.385827 -5.673764 7.899545
v -3.385827 -5.684065 7.841053
v -3.385827 -5.692899 7.902347
v -3.385827 -5.724504 7.849096
v -3.385827 -5.715341 7.908187
v -3.385827 -5.762919 7.864035
v -3.385827 -5.747069 7.922424
v -3.385827 -5.793897 7.882524
v -3.385827 -5.775271 7.942787
v -3.385827 -5.821867 7.905310
v -3.385827 -5.799147 7.968094
v -3.385827 -5.849045 7.936299
v -3.385827 -5.817406 7.997696
v -3.385827 -5.867981 7.966997
v -3.385827 -5.880437 7.995301
v -3.385827 -5.826126 8.019189
v -3.385827 -5.832289 8.041540
v -3.385827 -5.889091 8.024992
v -3.385827 -5.893794 8.055557
v -3.385827 -5.835151 8.064571
v -3.385827 -5.835150 8.091619
v -3.385827 -5.894318 8.091613
v -3.385827 -5.889091 8.127307
v -3.385827 -5.828614 8.125778
v -3.385827 -5.880435 8.157001
v -3.385827 -5.820521 8.147523
v -3.385827 -5.867981 8.185301
v -3.385827 -5.809967 8.168162
v -3.385827 -5.849045 8.215998
v -3.385827 -5.794134 8.190091
v -3.385827 -5.829012 8.239525
v -3.385827 -5.778095 8.206847
v -3.385827 -5.806358 8.260590
v -3.385827 -5.756872 8.223629
v -3.385827 -5.776510 8.280849
v -3.385827 -5.736702 8.235081
v -3.385827 -5.753488 8.292414
v -3.385827 -5.718957 8.242734
v -3.385827 -5.724508 8.303201
v -3.385827 -5.696698 8.249223
v -3.385827 -5.689182 8.310495
v -3.385827 -5.677617 8.252303
v -3.385827 -5.650573 8.253482
v -3.385827 -5.658323 8.312520
vn -1.0000 0.0000 0.0000
usemtl None
s 1
f 2//1 3//1 1//1
f 1//1 3//1 4//1
f 3//1 5//1 4//1
f 4//1 5//1 6//1
f 5//1 7//1 6//1
f 6//1 7//1 8//1
f 7//1 9//1 8//1
f 9//1 10//1 8//1
f 8//1 10//1 11//1
f 11//1 10//1 12//1
f 10//1 13//1 12//1
f 12//1 13//1 14//1
f 13//1 15//1 14//1
f 15//1 16//1 14//1
f 14//1 16//1 17//1
f 16//1 18//1 17//1
f 17//1 18//1 19//1
f 18//1 20//1 19//1
f 20//1 21//1 19//1
f 19//1 21//1 22//1
f 21//1 23//1 22//1
f 22//1 23//1 24//1
f 23//1 25//1 24//1
f 24//1 25//1 26//1
f 25//1 27//1 26//1
f 27//1 28//1 26//1
f 26//1 28//1 29//1
f 28//1 30//1 29//1
f 29//1 30//1 31//1
f 30//1 32//1 31//1
f 31//1 32//1 33//1
f 32//1 34//1 33//1
f 33//1 34//1 35//1
f 34//1 36//1 35//1
f 35//1 36//1 37//1
f 36//1 38//1 37//1
f 37//1 38//1 39//1
f 38//1 40//1 39//1
f 39//1 40//1 41//1
f 40//1 42//1 41//1
f 41//1 42//1 43//1
f 42//1 44//1 43//1
f 43//1 44//1 45//1
f 44//1 46//1 45//1
f 45//1 46//1 47//1
f 46//1 48//1 47//1
f 47//1 48//1 49//1
f 48//1 50//1 49//1
f 49//1 50//1 51//1
f 50//1 52//1 51//1
f 51//1 52//1 53//1
f 52//1 54//1 53//1
f 53//1 54//1 55//1
f 54//1 56//1 55//1
f 56//1 57//1 55//1
f 55//1 57//1 58//1
f 58//1 57//1 59//1
f 57//1 60//1 59//1
f 60//1 61//1 59//1
f 59//1 61//1 62//1
f 62//1 61//1 63//1
f 61//1 64//1 63//1
f 64//1 65//1 63//1
f 63//1 65//1 66//1
f 65//1 67//1 66//1
f 66//1 67//1 68//1
f 67//1 69//1 68//1
f 68//1 69//1 70//1
f 69//1 71//1 70//1
f 70//1 71//1 72//1
f 71//1 73//1 72//1
f 72//1 73//1 74//1
f 73//1 75//1 74//1
f 74//1 75//1 76//1
f 75//1 77//1 76//1
f 76//1 77//1 78//1
f 77//1 79//1 78//1
f 78//1 79//1 80//1
f 79//1 81//1 80//1
f 80//1 81//1 82//1
f 81//1 83//1 82//1
f 82//1 83//1 84//1
f 84//1 83//1 85//1
f 83//1 86//1 85//1
f 86//1 2//1 85//1
f 85//1 2//1 1//1
