<svg id="Layer_1" data-name="Layer 1" xmlns="http://www.w3.org/2000/svg" viewBox="0 0 433.99 127.41"><defs><style>.cls-1{fill:#03b188;}</style></defs><path class="cls-1" d="M29.38,24.22H43.89L39.34,47.67,58.08,24.19H75L55,48.11,68,74.18H51.53L44,58.31l-8.64,10-1.15,5.86H19.66Z"/><path class="cls-1" d="M97.82,24.16l14.65,0-9.48,50-14.66,0Z"/><path class="cls-1" d="M136.62,24.12h13.5l11.81,26.22,5.17-26.24h14.81l-9.72,50H158.53L146.58,48.26l-5,25.85H126.9Z"/><path class="cls-1" d="M206.06,24.05l39.58,0-2.47,12.42-24.84,0-1.24,6.1,23.84,0-2.39,12.27-23.84,0-1.31,6.79,25.84,0L236.84,74l-40.5,0Z"/><path class="cls-1" d="M278.5,36.41H262.84L265.24,24l46-.05-2.4,12.43H293.16L285.91,74H271.25Z"/><path class="cls-1" d="M332.28,23.93h14.66l-9.49,50-14.66,0Z"/><path class="cls-1" d="M364.37,50.13c0-15,11.65-27,27.55-27,8.1,0,14.81,2.84,19.44,7.23L400.48,40.53a10.84,10.84,0,0,0-9-4.15c-6.63,0-11.88,5.79-11.88,13.74,0,6.56,4.71,11.41,11.19,11.41a10.91,10.91,0,0,0,7.94-2.79l8.41,10.64a27.58,27.58,0,0,1-16.58,5.42C374.71,74.81,364.37,64.87,364.37,50.13Z"/><path class="cls-1" d="M110,93.06a9,9,0,0,1,9.45-9.2,9.58,9.58,0,0,1,6.8,2.59L122.81,90a4,4,0,0,0-3.14-1.4,4.27,4.27,0,0,0-4.22,4.46,4.21,4.21,0,0,0,4.22,4.52,4.65,4.65,0,0,0,3.8-2l3.33,3.67a9.55,9.55,0,0,1-7.35,3A9,9,0,0,1,110,93.06Z"/><path class="cls-1" d="M141.35,93.06c0-5.1,3.83-9.2,9.56-9.2s9.58,4.1,9.58,9.2-3.86,9.25-9.58,9.25S141.35,98.21,141.35,93.06Zm13.69,0a4.14,4.14,0,0,0-4.13-4.46,4.22,4.22,0,0,0-4.11,4.46c0,2.64,1.71,4.52,4.11,4.52S155,95.7,155,93.06Z"/><path class="cls-1" d="M176.75,84.14h4.54L187,92a9.07,9.07,0,0,1,.8,1.35V84.14H193V102h-4.55l-5.67-7.76a10.16,10.16,0,0,1-.8-1.35V102h-5.23Z"/><path class="cls-1" d="M214.43,88.57h-5.59V84.14h16.41v4.43h-5.59V102h-5.23Z"/><path class="cls-1" d="M241.1,84.14H249c5.49,0,8.29,3.16,8.29,7a6.65,6.65,0,0,1-2.8,5.48l3.33,5.31h-6l-2-3.82a12.87,12.87,0,0,1-1.29.08h-2.15V102H241.1ZM249,93.8a2.62,2.62,0,1,0,0-5.23h-2.73V93.8Z"/><path class="cls-1" d="M273,93.06c0-5.1,3.83-9.2,9.56-9.2s9.58,4.1,9.58,9.2-3.86,9.25-9.58,9.25S273,98.21,273,93.06Zm13.69,0a4.14,4.14,0,0,0-4.13-4.46,4.22,4.22,0,0,0-4.11,4.46c0,2.64,1.71,4.52,4.11,4.52S286.66,95.7,286.66,93.06Z"/><path class="cls-1" d="M308.37,84.14h5.23V97.55h9.5V102H308.37Z"/></svg>