<svg id="Layer_1" data-name="Layer 1" xmlns="http://www.w3.org/2000/svg" viewBox="0 0 98.72 130.35"><path d="M16.81,29.11H16V21.65h.86c1.18,0,1.77,1.24,1.77,3.73a6.63,6.63,0,0,1-.46,2.83A1.42,1.42,0,0,1,16.81,29.11ZM18.06,59a.75.75,0,0,0-.74.75.74.74,0,0,0,1.48,0A.75.75,0,0,0,18.06,59Zm-3,31.23c0-.61,0-1.21,0-1.81,0-.34.14-.58-.25-.61l-.53,0c-.57,0-1.13,0-1.69,0-.37,0-.44.11-.72-.17L11.23,87,8.76,84.54l-1.4-1.37v6.55a7.28,7.28,0,0,0,2.79,5.33l5,3.48V94ZM21.53,74a.75.75,0,0,0,.75-.74.75.75,0,1,0-1.49,0A.74.74,0,0,0,21.53,74Zm7.64-34.42a4.27,4.27,0,0,0,.47,1.67,1,1,0,0,0,1.64,0,4.27,4.27,0,0,0,.47-1.67q.15-1.2.21-3.24c0-1.36,0-3.07,0-5.13s0-3.76,0-5.12-.11-2.44-.21-3.24a4.27,4.27,0,0,0-.47-1.67,1,1,0,0,0-1.64,0,4.27,4.27,0,0,0-.47,1.67c-.1.8-.17,1.88-.2,3.24s0,3.07,0,5.12,0,3.77,0,5.13S29.07,38.78,29.17,39.58Zm2.4,49.29A.87.87,0,0,0,30,88.28c-.36.77.28,1.3,1,1.23C31.15,89.2,31.5,89.19,31.57,88.87Zm-.42,7.91a.91.91,0,0,0-.5-1.66C29.18,95.21,30,97.53,31.15,96.78ZM21.48,96a.9.9,0,0,0,.27-1.78C20.74,94.08,20.41,95.88,21.48,96Zm.87-8.63c.48-.62-.29-1.45-1-1.27-.21,0-.84.69-.54,1.13A.86.86,0,0,0,22.35,87.39Zm17.17,7.48c-1.58-1.46-3-3.05-4.53-4.59a2.42,2.42,0,0,0-1.05-.77.86.86,0,0,0-1,.44A4.46,4.46,0,0,1,31.77,91a2.16,2.16,0,0,1-1.6.17,2.79,2.79,0,0,1-2.07-2.27,2.75,2.75,0,0,1,.28-1.47,16.54,16.54,0,0,0-1.27-1.24c-.63-.59-1.29-1.89-2.17-2.11a11.87,11.87,0,0,0-2.73,0c-2.05,0-4.13-.1-6.18,0-1,.06-1.88.2-2.65-.57-.6-.6-1.14-1.27-1.77-1.84a6.28,6.28,0,0,1-1.83-1.91,6.6,6.6,0,0,1,0-2.43V64.67c0-.88.11-1.78.07-2.65S9,60.65,8.44,60.14c-.34-.31-.91-.68-1.08-1.11v21.8c1.06,1.08,2.11,2.17,3.18,3.24A13,13,0,0,0,12.41,86c.71.46,1.9.22,2.7.17,1.1-.07,2.21,0,3.32,0,.65,0,.65.08,1-.47a2.56,2.56,0,0,1,1.51-1.19,2.35,2.35,0,0,1,2.5.7,2.57,2.57,0,0,1,.69,2.44c-.12.4-.33.4,0,.74l.67.68,1.35,1.37c.82.84,1.66,1.67,2.51,2.47l.71.65c.39.34.16.15.49,0a3.56,3.56,0,0,1,1.26-.07c.83,0,1.67,1,2,1.7a2.35,2.35,0,0,1-.44,2.42c-.26.29-1,1-1.4,1s-1.17.14-1.59-.13A3,3,0,0,1,28.11,96c0-.53.41-1.05.05-1.41l-1.32-1.36c-.88-.9-1.77-1.8-2.68-2.68-.32-.31-1.15-1.36-1.55-1.2a3.94,3.94,0,0,1-1.45.13,2,2,0,0,1-1.24-.67c-.32-.34-.68-1.06-1.13-1a10,10,0,0,0-1.89,0c0,.64,0,1.27,0,1.91,0,1.29,0,2.57,0,3.86,0,2,0,4.08,0,6.12L41,116.54v-3.31S24,98,23.15,97.61c-.43-.19-.57.14-.94.14h-.78a2.63,2.63,0,0,1-2.25-3.53A4.1,4.1,0,0,1,21,92.57a2.85,2.85,0,0,1,2.38.69,2.69,2.69,0,0,1,.87,2.23.84.84,0,0,1-.13.49c-.16.22.11.36.28.55.41.45,3.71,2.61,4,3s12.27,11.67,12.8,11.78c0-3.73.26-13.14,0-14.31C41,96,40.27,95.56,39.52,94.87ZM31.09,73.05h0a.84.84,0,1,0,.84.84A.83.83,0,0,0,31.09,73.05Zm-.28,7.41a.87.87,0,0,0-.21,1.72A.87.87,0,0,0,30.81,80.46ZM90.81,11V89.72a7.54,7.54,0,0,1-2.75,5.39L52.68,120.8a5.1,5.1,0,0,1-5.53,0l-4.49-3.13c0-8.34,0-21.47-.1-21.85-.16-.68-1.05-1.28-1.54-1.73-.9-.81-1.73-1.69-2.6-2.54L35.79,89c-.34-.34-.64-.73-1-1s-1-.11-1.55-.12A3.08,3.08,0,0,0,31,86.12a2.81,2.81,0,0,0-1.19.08c-.3.13-.09.31-.45,0s-.57-.51-.85-.77c-.82-.78-1.65-1.59-2.4-2.44s-1.6-.71-2.65-.64c-2.45.15-4.9,0-7.36,0-.56,0-1.38.23-1.79-.16L13,80.9c-.46-.45-.91-.91-1.34-1.39s-.19-1.41-.19-2c.07-5.18-.09-10.36.09-15.53,0-1.07-.5-1.48-1.25-2.17-1-.92-1.95-1.9-2.91-2.86V11a3.4,3.4,0,0,1,3.4-3.39H87.42A3.4,3.4,0,0,1,90.81,11ZM24.21,31.21a72.12,72.12,0,0,0,.32,7.32,19.68,19.68,0,0,0,1,4.93,5.58,5.58,0,0,0,1.94,2.72,5.68,5.68,0,0,0,5.88,0,5.58,5.58,0,0,0,1.94-2.72,19.68,19.68,0,0,0,1-4.93,72.12,72.12,0,0,0,.32-7.32,72.05,72.05,0,0,0-.32-7.31,19.68,19.68,0,0,0-1-4.93,6.07,6.07,0,0,0-1.94-2.79,5.35,5.35,0,0,0-5.88,0A6.07,6.07,0,0,0,25.58,19a19.68,19.68,0,0,0-1,4.93A72.05,72.05,0,0,0,24.21,31.21ZM11.39,46.52H16V34.86h1.6a4.7,4.7,0,0,0,4.27-2.38q1.45-2.38,1.46-7.14A22.77,22.77,0,0,0,23,21.61a11.12,11.12,0,0,0-.92-3,5.64,5.64,0,0,0-1.58-2,3.66,3.66,0,0,0-2.26-.73H11.39Zm7.87,24.32V61.92a2.48,2.48,0,1,0-1.76.25V72.45c-.09.25,1.55.52,1.55.81a2.49,2.49,0,1,0,2.48-2.49C21.34,70.77,19.45,70.8,19.26,70.84ZM24,78.35c-.24-.52-1.18-1.62-1.82-1.62-.48,0-1.12-.15-1.51.14a6.41,6.41,0,0,0-1.13.94c-.36.42-.26.64-.81.64-.34,0-.5.06-.74-.17s-.79-.75-1.17-1.13c-.56-.55-1.63-1.17-1.76-2a17.46,17.46,0,0,1,0-2.89V53.51c0-.27-.28-.4-.46-.59l-2.51-2.54C10.59,48.79,9,47.24,7.4,45.65c0,.74,0,1.48,0,2.21l5.45,5.41c1,.95.53,2.27.53,3.5V75.59a1.22,1.22,0,0,0,0,.27c.91,1,3.53,4.14,4.79,4.37.22,0,1-.25,1.08.1a1.39,1.39,0,0,0,.51.79,2.58,2.58,0,0,0,4-.41A2.26,2.26,0,0,0,24,78.35Zm4.39-10.59a2.68,2.68,0,0,0,.95,1c1.35,1,2.73.19,3.61-1,1-1.34-.12-2.81-1.3-3.55a2.26,2.26,0,0,0-2.38.26,4,4,0,0,0-.93,1c-.28.43-1.19.24-1.7.24s-1,0-1.56,0l-.59,0h0a2.42,2.42,0,1,0-2.26,1.57,2.35,2.35,0,0,0,.6-.09l0,.06c.45.48,1.67.19,2.26.19.83,0,1.67,0,2.5.06C27.93,67.51,28.26,67.4,28.42,67.76Zm4.35,12A2.55,2.55,0,0,0,29.59,79,2.72,2.72,0,0,0,28.17,82c.54,1.36,2.25,2.57,3.65,1.65S33.86,81.18,32.77,79.81Zm7-19a2.58,2.58,0,1,0-3.59,2.37c0,.64-.09,5.09-.09,5.09S33,70.9,32.36,71.4a2.79,2.79,0,1,0-2.08,5.16l.12,0,.22.05a2,2,0,0,0,.35,0h.34a2.79,2.79,0,0,0,2.43-1.91s0-.06,0-.08a3.18,3.18,0,0,0,.08-.33,1.36,1.36,0,0,0,0-.21,2.13,2.13,0,0,0,0-.25,2.8,2.8,0,0,0-.23-1.12c-.06-.31,4-3.91,4-3.91s.06-4.67.06-5.55A3,3,0,0,0,39.78,60.77ZM49.87,34.22H45.46c0,1.45,0,2.66-.06,3.62a18.21,18.21,0,0,1-.21,2.29,3,3,0,0,1-.42,1.23.82.82,0,0,1-.68.36.94.94,0,0,1-.83-.47,4.48,4.48,0,0,1-.46-1.67,29.81,29.81,0,0,1-.21-3.24c0-1.36-.05-3.07-.05-5.13s0-3.76.05-5.12a29.81,29.81,0,0,1,.21-3.24,4.48,4.48,0,0,1,.46-1.67.94.94,0,0,1,.83-.47c.44,0,.76.31.95.94a13.85,13.85,0,0,1,.3,3.56v1.72h4.41V25a24.12,24.12,0,0,0-.31-4,9.94,9.94,0,0,0-1-3,5.11,5.11,0,0,0-1.75-2,4.76,4.76,0,0,0-2.62-.69,5.05,5.05,0,0,0-3,.84,5.85,5.85,0,0,0-1.94,2.72,19.51,19.51,0,0,0-1,4.94q-.3,3-.3,7.41t.25,7.32A20.12,20.12,0,0,0,39,43.46,5.25,5.25,0,0,0,41,46.18a5.59,5.59,0,0,0,3.14.82,5.85,5.85,0,0,0,2.14-.41A4.1,4.1,0,0,0,48.08,45a9.69,9.69,0,0,0,1.3-3.24,23.17,23.17,0,0,0,.49-5.27Zm15.27,12.3H75.72V40h-6V33.92h5.45V27.66H69.69V22.42H75.5V15.9H65.14Zm-13.8,0H55.9v-8.1l1-2.57,2.67,10.67h5.2L59.77,29.28,64.18,15.9H59.33L56,27.66H55.9V15.9H51.34Zm17.15,4.59H62.74V76.53h-.06l-4-25.42H51.85V92.37h5.74V66.88h.07l4.09,25.49h6.74ZM86.91,75.78H81c0,2,0,3.59-.08,4.88a27.1,27.1,0,0,1-.28,3.1,4,4,0,0,1-.56,1.64,1.11,1.11,0,0,1-.93.49,1.25,1.25,0,0,1-1.1-.63A5.72,5.72,0,0,1,77.39,83a42.59,42.59,0,0,1-.28-4.37Q77,75.9,77,71.74t.07-6.91a42.36,42.36,0,0,1,.28-4.36A5.67,5.67,0,0,1,78,58.22a1.24,1.24,0,0,1,1.1-.64c.6,0,1,.42,1.29,1.27a19.18,19.18,0,0,1,.4,4.8V66h5.94v-2.6a32.52,32.52,0,0,0-.41-5.4A14,14,0,0,0,85,53.85a7,7,0,0,0-2.36-2.63,6.52,6.52,0,0,0-3.54-.92,6.76,6.76,0,0,0-4,1.13,7.68,7.68,0,0,0-2.61,3.67,26,26,0,0,0-1.41,6.64q-.4,4.11-.41,10t.35,9.85a26.43,26.43,0,0,0,1.27,6.64A7,7,0,0,0,74.9,91.9,7.42,7.42,0,0,0,79.12,93,7.77,7.77,0,0,0,82,92.45a5.47,5.47,0,0,0,2.49-2.13A13.1,13.1,0,0,0,86.25,86a31.57,31.57,0,0,0,.66-7.11Zm.77-59.88H76.31v6.78h3.38V46.52h4.56V22.68h3.43ZM20.78,79.1a.88.88,0,0,0,1.66.53C22.88,78.64,21.07,77.89,20.78,79.1ZM31.57,66.77c.18-1.25-1.84-1.27-1.73-.11A.88.88,0,0,0,31.57,66.77ZM95.16,7.31v85a8.28,8.28,0,0,1-3.11,6.06L53.26,126.32a6,6,0,0,1-6.53.07l-40.56-28a8.08,8.08,0,0,1-3.16-6v-85A4.25,4.25,0,0,1,7.26,3.07H90.92A4.25,4.25,0,0,1,95.16,7.31Zm-1.7,0a2.54,2.54,0,0,0-2.54-2.54H7.26A2.55,2.55,0,0,0,4.71,7.31v85A6.38,6.38,0,0,0,7.14,97L47.7,125a4.33,4.33,0,0,0,4.57,0L91.06,97a6.62,6.62,0,0,0,2.4-4.69Z"/></svg>