<svg version="1.1" viewBox="0 0 561.4 688.47" xmlns="http://www.w3.org/2000/svg">
 <defs>
  <clipPath id="clipPath1051">
   <path d="M 0,516.35 H 421.05 V 0 H 0 Z"/>
  </clipPath>
  <linearGradient id="linearGradient1127" x2="1" gradientTransform="matrix(301.27 -250.17 -250.17 -301.27 66.263 502.65)" gradientUnits="userSpaceOnUse">
   <stop stop-color="#058c6d" offset="0"/>
   <stop stop-color="#09af86" offset="1"/>
  </linearGradient>
 </defs>
 <g transform="matrix(1.3333 0 0 -1.3333 0 688.47)">
  <g clip-path="url(#clipPath1051)">
   <g transform="translate(62.156 153.97)">
    <path d="m0 0c0 3.129-1.695 5.213-4.301 5.213h-7.169v-26.065h7.038c2.737 0 4.432 2.085 4.432 5.213zm20.201-0.914v-13.815c0-14.073-10.817-24.372-25.806-24.372h-5.865v-29.976h-20.201v92.539h25.936c14.988 0 25.936-10.299 25.936-24.376" fill="#333"/>
   </g>
   <g transform="translate(129.27 159.18)">
    <path d="m0 0v-20.199h15.38v-18.249h-15.38v-17.597h20.593v-18.245h-40.794v92.539h40.794v-18.249z" fill="#333"/>
   </g>
   <g transform="translate(235.36 177.43)">
    <path d="m0 0v-92.54h-16.944l-19.679 50.31v-50.31h-16.944v92.54h16.944l19.679-50.702v50.702z" fill="#333"/>
   </g>
   <g transform="translate(314.85 159.18)">
    <path d="m0 0h-15.902v-74.29h-20.201v74.29h-16.03v18.249h52.133z" fill="#333"/>
   </g>
   <g transform="translate(365.67 150.84)">
    <path d="m0 0-3.39-31.408h6.78zm5.866-49.657h-11.732l-3.128-16.292h-19.679l16.552 92.54h24.633l16.553-92.54h-20.071z" fill="#333"/>
   </g>
   <g transform="translate(82.772 64.296)">
    <path d="m0 0h5.09l3.992-5.72c0.661-0.971 1.732-2.637 1.732-2.637s1.067 1.666 1.727 2.637l3.992 5.72h5.09v-20.364h-5.973v10.307s-1.036-1.663-1.6-2.449l-3.236-4.526-3.271 4.526c-0.564 0.786-1.57 2.387-1.57 2.387v-10.245h-5.973z" fill="#333"/>
   </g>
   <g transform="translate(126.66 51.16)">
    <path d="m0 0-2.418 6.883c-0.188 0.503-0.223 0.691-0.254 0.817 0 0-0.061-0.284-0.249-0.817l-2.422-6.883zm-5.75 13.136h6.161l8.234-20.364h-6.1l-0.94 2.641h-8.549l-0.945-2.641h-6.095z" fill="#333"/>
   </g>
   <g transform="translate(141.7 54.116)">
    <path d="m0 0c0 5.812 4.307 10.495 10.779 10.495 3.113 0 5.908-1.098 7.762-2.952l-3.927-4.054c-1.447 1.474-2.61 1.601-3.582 1.601-2.641 0-4.809-2.138-4.809-5.09 0-3.017 2.011-5.155 4.809-5.155 1.666 0 3.206 0.756 4.338 2.261l3.8-4.177c-2.042-2.265-4.902-3.489-8.391-3.489-6.472 0-10.779 4.683-10.779 10.56" fill="#333"/>
   </g>
   <g transform="translate(169.31 64.296)">
    <path d="m0 0h5.973v-7.604h6.127v7.604h5.973v-20.364h-5.973v7.7h-6.127v-7.7h-5.973z" fill="#333"/>
   </g>
   <path d="m197.14 64.296h5.973v-20.364h-5.973z" fill="#333"/>
   <g transform="translate(212.86 64.296)">
    <path d="m0 0h5.186l6.476-9.017c0.468-0.63 0.91-1.539 0.91-1.539v10.556h5.973v-20.364h-5.186l-6.476 8.863c-0.472 0.63-0.91 1.54-0.91 1.54v-10.403h-5.973z" fill="#333"/>
   </g>
   <g transform="translate(241.17 64.296)">
    <path d="m0 0h16.188v-5.059h-10.215v-2.48h9.804v-4.998h-9.804v-2.768h10.591v-5.059h-16.564z" fill="#333"/>
   </g>
   <g transform="translate(279.06 54.116)">
    <path d="m0 0c0 5.812 4.307 10.495 10.783 10.495 3.109 0 5.908-1.098 7.762-2.952l-3.927-4.054c-1.447 1.474-2.611 1.601-3.586 1.601-2.641 0-4.809-2.138-4.809-5.09 0-3.017 2.011-5.155 4.809-5.155 1.666 0 3.206 0.756 4.338 2.261l3.804-4.177c-2.042-2.265-4.906-3.489-8.391-3.489-6.476 0-10.783 4.683-10.783 10.56" fill="#333"/>
   </g>
   <g transform="translate(321.03 54.116)">
    <path d="m0 0c0 2.952-1.95 5.09-4.714 5.09-2.576 0-4.683-2.138-4.683-5.09 0-3.017 1.95-5.155 4.683-5.155 2.764 0 4.714 2.138 4.714 5.155m-15.62 0c0 5.812 4.369 10.495 10.906 10.495s10.937-4.683 10.937-10.495c0-5.877-4.4-10.56-10.937-10.56s-10.906 4.683-10.906 10.56" fill="#333"/>
   </g>
   <g transform="translate(336.17 46.699)">
    <path d="m0 0c0 1.727 1.32 3.079 3.109 3.079 1.824 0 3.175-1.352 3.175-3.079 0-1.731-1.351-3.082-3.175-3.082-1.789 0-3.109 1.351-3.109 3.082" fill="#333"/>
   </g>
  </g>
  <path d="m146.57 488.45c-11.989 0-22.533-7.661-26.238-19.063l-40.813-125.61c-3.705-11.402 0.322-23.799 10.023-30.846l106.85-77.631c4.745-3.447 10.352-5.269 16.216-5.269 5.865 0 11.473 1.822 16.217 5.269l106.85 77.632c9.7 7.046 13.728 19.443 10.023 30.845l-40.814 125.61c-3.705 11.402-14.249 19.063-26.238 19.063zm137.56-21.55-119.76 13.256c-0.54 0.06-1.078 0.095-1.612 0.114h115.89c8.409 0 15.86-5.415 18.458-13.411l3.838-11.811c-3.14 6.475-9.403 11.031-16.812 11.852m-82.929-224.98-106.85 77.632c-6.802 4.942-9.649 13.702-7.05 21.699l40.813 125.61c2.598 7.996 10.05 13.411 18.458 13.411h15.225c-8.229-0.075-15.734-4.873-19.19-12.521l-49.613-109.8c-3.813-8.438-1.775-18.296 5.072-24.53l89.098-81.117c4.03-3.669 9.156-5.562 14.333-5.562 3.615 0 7.255 0.921 10.563 2.806l104.22 59.406-92.258-67.03c-3.401-2.471-7.404-3.707-11.409-3.707-4.003 0-8.006 1.236-11.407 3.707m-12.661 11.893-89.098 81.117c-6.19 5.637-8.032 14.547-4.585 22.176l49.613 109.8c3.15 6.968 10.021 11.333 17.529 11.333 0.709 0 1.425-0.04 2.144-0.119l119.76-13.257c8.32-0.918 15.048-7.046 16.742-15.245l2.777-13.424c-2.579 6.356-8.04 11.271-14.972 13.036l-103.59 26.362c-9.273 2.362-18.94-1.488-24.05-9.581l-57.082-90.37c-5.111-8.093-4.436-18.475 1.68-25.833l68.308-82.216c4.283-5.158 10.513-7.962 16.918-7.962 2.736 0 5.507 0.514 8.171 1.574l98.228 39.133-85.993-49.017c-2.991-1.706-6.282-2.541-9.549-2.541-4.68 0-9.313 1.712-12.957 5.03m-25.995 211.11c3.726 5.902 10.122 9.315 16.859 9.315 1.643 0 3.308-0.202 4.959-0.622l18.077-4.601c-8.216 2.074-17.014-0.48-22.86-6.933l-62.059-68.492c-0.049-0.054-0.091-0.112-0.14-0.166zm128.08-35.104-84.32 37.858c-1.113 0.5-2.248 0.902-3.396 1.217l85.038-21.641c8.413-2.144 14.445-9.404 15.009-18.065l1.107-17.03c-1.167 7.662-6.107 14.37-13.438 17.661m-109.53 30.889c4.116 4.546 9.837 6.971 15.682 6.971 2.928 0 5.888-0.609 8.693-1.866l10.986-4.933c-1.274 0.201-2.562 0.305-3.849 0.305-5.075 0-10.15-1.567-14.461-4.699l-61.101-44.393zm109.3-50.229-61.987 45.036 61.384-27.56c8.397-3.771 13.374-12.452 12.382-21.607l-1.653-15.272c-0.156 7.546-3.774 14.787-10.126 19.403m-132.54-99.422-24.187 74.441c-2.206 6.788 0.192 14.167 5.966 18.363l63.323 46.006c2.824 2.052 6.162 3.137 9.653 3.137 3.492 0 6.83-1.085 9.655-3.137l63.322-46.006c5.774-4.196 8.172-11.575 5.967-18.363l-24.188-74.441c-2.205-6.787-8.482-11.348-15.62-11.348h-78.271c-7.137 0-13.415 4.561-15.62 11.348m169.2 20.986-24.262 117.32 35.126-108.11c2.599-7.997-0.247-16.757-7.05-21.699l-9.964-7.24c5.24 4.989 7.667 12.393 6.15 19.731m-15.117-9.386-6.869 105.6 19.984-96.626c1.695-8.199-2.053-16.492-9.324-20.635l-11.528-6.571c5.226 4.418 8.2 11.115 7.737 18.235m-17.676-8.418 9.948 91.891c0.068 0.635 0.11 1.269 0.127 1.899l5.562-85.505c0.561-8.663-4.478-16.641-12.543-19.855l-13.493-5.376c5.714 3.722 9.631 9.851 10.399 16.946m-177.9 53.218c-4.576 7.986-3.499 17.937 2.68 24.759l8.009 8.839c-2.608-5.537-3.141-11.983-1.159-18.085l24.109-74.199zm-9.368-16.34c-5.549 6.676-6.162 16.095-1.526 23.436l7.873 12.464c-2.769-6.546-2.442-14.141 1.247-20.577l45.222-78.893zm168.16-42.587 24.188 74.44c0.193 0.596 0.359 1.195 0.504 1.797l-7.61-70.309c-0.991-9.151-7.711-16.567-16.72-18.452l-17.601-3.684c8.002 2.071 14.599 8.083 17.239 16.208m-112.82-21.26-7.103 12.39c4.566-5.056 11.135-8.131 18.256-8.131h78.271c1.287 0 2.553 0.105 3.796 0.298l-70.5-14.756c-1.463-0.307-2.93-0.456-4.38-0.456-7.476-1e-3 -14.505 3.963-18.34 10.655m23.137-12.202 89.793 18.795-77.196-30.754c-8.063-3.219-17.21-0.884-22.759 5.792l-8.618 10.374c3.991-3.027 8.893-4.704 13.986-4.704 1.587 0 3.193 0.162 4.794 0.497" fill="url(#linearGradient1127)"/>
 </g>
</svg>
