<?xml version="1.0" encoding="UTF-8" standalone="no"?>
<svg
   xmlns:dc="http://purl.org/dc/elements/1.1/"
   xmlns:cc="http://creativecommons.org/ns#"
   xmlns:rdf="http://www.w3.org/1999/02/22-rdf-syntax-ns#"
   xmlns:svg="http://www.w3.org/2000/svg"
   xmlns="http://www.w3.org/2000/svg"
   xmlns:sodipodi="http://sodipodi.sourceforge.net/DTD/sodipodi-0.dtd"
   xmlns:inkscape="http://www.inkscape.org/namespaces/inkscape"
   inkscape:version="1.0beta2 (2b71d25, 2019-12-03)"
   sodipodi:docname="PocketNCLogo.svg"
   viewBox="0 0 138.3804 186.58932"
   height="186.58932"
   width="138.3804"
   xml:space="preserve"
   id="svg851"
   version="1.1"><metadata
     id="metadata857"><rdf:RDF><cc:Work
         rdf:about=""><dc:format>image/svg+xml</dc:format><dc:type
           rdf:resource="http://purl.org/dc/dcmitype/StillImage" /><dc:title></dc:title></cc:Work></rdf:RDF></metadata><defs
     id="defs855" /><sodipodi:namedview
     inkscape:current-layer="g859"
     inkscape:window-maximized="0"
     inkscape:window-y="25"
     inkscape:window-x="0"
     inkscape:cy="85.889328"
     inkscape:cx="66.636402"
     inkscape:zoom="2.3333333"
     fit-margin-bottom="0"
     fit-margin-right="0"
     fit-margin-left="0"
     fit-margin-top="0"
     showgrid="false"
     id="namedview853"
     inkscape:window-height="856"
     inkscape:window-width="1412"
     inkscape:pageshadow="2"
     inkscape:pageopacity="0"
     guidetolerance="10"
     gridtolerance="10"
     objecttolerance="10"
     borderopacity="1"
     inkscape:document-rotation="0"
     bordercolor="#666666"
     pagecolor="#ffffff" /><g
     transform="matrix(1.3333333,0,0,-1.3333333,-77.363598,229.88933)"
     inkscape:label="ink_ext_XXXXXX"
     inkscape:groupmode="layer"
     id="g859"><g
       transform="scale(0.1)"
       id="g861"><path
         inkscape:connector-curvature="0"
         id="path863"
         style="fill:#87cf47;fill-opacity:1;fill-rule:nonzero;stroke:none"
         d="m 1569.1,748.262 c 0,-21.032 -13.92,-48.34 -30.94,-60.703 L 1139.69,398.172 c -17.01,-12.363 -45.05,-12.633 -62.31,-0.602 L 660.574,688.16 c -17.254,12.031 -31.363,39.07 -31.363,60.102 V 1634.4 c 0,21.03 17.207,38.23 38.23,38.23 h 863.429 c 21.02,0 38.23,-17.2 38.23,-38.23 V 748.262" /><g
         transform="scale(10)"
         id="g865"><g
           style="font-variant:normal;font-weight:900;font-size:48.3037px;font-family:'Helvetica Neue';-inkscape-font-specification:HelveticaNeue-CondensedBlack;writing-mode:lr-tb;fill:#ffffff;fill-opacity:1;fill-rule:nonzero;stroke:none"
           id="text869"
           transform="matrix(0.571428,0,0,-1,66.4418,123.474)"
           aria-label="POCKET"><path
             id="path918"
             style=""
             d="m 10.771725,-19.611302 v -8.404844 h 1.690629 q 3.477867,0 3.477867,4.202422 0,2.173667 -0.91777,3.188044 -0.869467,1.014378 -2.560097,1.014378 z M 1.7872369,-34.488841 V 0 h 8.9844881 v -13.138606 h 3.13974 q 5.554926,0 8.404844,-2.656704 2.898222,-2.705007 2.898222,-8.066718 0,-2.270273 -0.579644,-4.202421 -0.579645,-1.932148 -1.835541,-3.332956 -1.207592,-1.449111 -3.091437,-2.270274 -1.883844,-0.821162 -4.44394,-0.821162 z" /><path
             id="path920"
             style=""
             d="m 36.324382,-17.244421 q 0,-3.477866 0.09661,-5.74814 0.09661,-2.318578 0.386429,-3.671081 0.338126,-1.352504 0.917771,-1.883844 0.627948,-0.531341 1.642325,-0.531341 1.014378,0 1.594022,0.531341 0.627949,0.53134 0.917771,1.883844 0.338126,1.352503 0.434733,3.671081 0.09661,2.270274 0.09661,5.74814 0,3.477867 -0.09661,5.796444 -0.09661,2.2702741 -0.434733,3.6227777 -0.289822,1.3525036 -0.917771,1.8838443 -0.579644,0.5313407 -1.594022,0.5313407 -1.014377,0 -1.642325,-0.5313407 -0.579645,-0.5313407 -0.917771,-1.8838443 -0.289822,-1.3525036 -0.386429,-3.6227777 -0.09661,-2.318577 -0.09661,-5.796444 z m -9.27431,0 q 0,4.83037 0.627948,8.2599329 0.627948,3.381259 2.077059,5.5549254 1.449111,2.1253628 3.815992,3.0431331 2.366882,0.91777029 5.796444,0.91777029 3.429563,0 5.796444,-0.91777029 2.366882,-0.9177703 3.815993,-3.0431331 1.449111,-2.1736664 2.077059,-5.5549254 0.627948,-3.4295629 0.627948,-8.2599329 0,-4.83037 -0.627948,-8.211629 -0.627948,-3.429562 -2.077059,-5.554925 -1.449111,-2.173667 -3.815993,-3.139741 -2.366881,-1.014377 -5.796444,-1.014377 -3.429562,0 -5.796444,1.014377 -2.366881,0.966074 -3.815992,3.139741 -1.449111,2.125363 -2.077059,5.554925 -0.627948,3.381259 -0.627948,8.211629 z" /><path
             id="path922"
             style=""
             d="m 68.687861,-24.006939 v 1.932148 h 8.694666 v -2.173666 q 0,-2.511793 -0.627948,-4.492244 -0.579644,-2.028756 -1.932148,-3.429563 -1.3042,-1.449111 -3.429562,-2.22197 -2.125363,-0.772859 -5.168496,-0.772859 -3.477867,0 -5.844748,0.966074 -2.366881,0.91777 -3.815992,3.043133 -1.449111,2.125363 -2.077059,5.554925 -0.579645,3.429563 -0.579645,8.35654 0,4.83037 0.483037,8.2599329 0.531341,3.381259 1.883845,5.5549254 1.352503,2.1253628 3.767688,3.0431331 2.415185,0.91777029 6.182874,0.91777029 2.173666,0 4.202422,-0.48303699 2.077059,-0.4347333 3.671081,-1.7389332 1.594022,-1.3525036 2.560096,-3.6710811 0.966074,-2.3185776 0.966074,-5.9413554 v -2.560096 H 68.92938 q 0,2.463489 -0.144911,4.1058147 -0.09661,1.5940221 -0.38643,2.5600961 -0.289822,0.966074 -0.821163,1.4008073 -0.53134,0.3864296 -1.352503,0.3864296 -1.014378,0 -1.642326,-0.5313407 -0.579645,-0.5313407 -0.91777,-1.8838443 -0.289823,-1.3525036 -0.38643,-3.6227777 -0.09661,-2.318577 -0.09661,-5.796444 0,-3.477866 0.09661,-5.74814 0.09661,-2.318578 0.38643,-3.671081 0.338125,-1.352504 0.91777,-1.883844 0.627948,-0.531341 1.642326,-0.531341 1.3042,0 1.883844,1.062681 0.579644,1.062682 0.579644,4.009207 z" /><path
             id="path924"
             style=""
             d="M 80.522268,-34.488841 V 0 h 8.984488 V -9.1293992 L 91.3906,-12.027621 96.655704,0 h 10.240386 l -9.757349,-19.418087 8.694669,-15.070754 h -9.564136 l -6.66591,13.235213 h -0.09661 v -13.235213 z" /><path
             id="path926"
             style=""
             d="M 107.71725,-34.488841 V 0 h 20.8672 v -7.3421623 h -11.88271 v -6.8591257 h 10.72342 v -7.05234 h -10.72342 v -5.893051 h 11.44798 v -7.342162 z" /><path
             id="path928"
             style=""
             d="M 136.40798,-26.856857 V 0 h 8.98448 v -26.856857 h 6.76252 v -7.631984 h -22.41291 v 7.631984 z" /></g><g
           style="font-variant:normal;font-weight:900;font-size:65.0841px;font-family:'Helvetica Neue';-inkscape-font-specification:HelveticaNeue-CondensedBlack;writing-mode:lr-tb;fill:#ffffff;fill-opacity:1;fill-rule:nonzero;stroke:none"
           id="text873"
           transform="matrix(0.571428,0,0,-1,111.39071,71.842)"
           aria-label="NC"><path
             id="path931"
             style=""
             d="M 2.8637003,-46.470047 V 0 H 14.188334 v -28.702088 h 0.130168 L 22.38893,0 H 35.666086 V -46.470047 H 24.341453 v 28.637004 h -0.130168 l -7.810092,-28.637004 z" /><path
             id="path933"
             style=""
             d="m 59.942457,-32.346797 v 2.603364 h 11.715138 v -2.928785 q 0,-3.384373 -0.846093,-6.052821 -0.781009,-2.733532 -2.603364,-4.620971 -1.757271,-1.952523 -4.620971,-2.993868 -2.8637,-1.041346 -6.963999,-1.041346 -4.686055,0 -7.875176,1.301682 -3.18912,1.236598 -5.141643,4.100298 -1.952523,2.863701 -2.798617,7.484672 -0.781009,4.620971 -0.781009,11.259549 0,6.50841 0.650841,11.129381 0.715925,4.5558865 2.53828,7.484671 1.822355,2.8637003 5.07656,4.10029821 3.254205,1.23659788 8.330764,1.23659788 2.928785,0 5.662317,-0.65084099 2.798616,-0.58575689 4.946392,-2.3430276 2.147775,-1.8223547 3.449457,-4.9463915 1.301682,-3.124037 1.301682,-8.005344 v -3.449457 H 60.267878 q 0,3.319289 -0.195252,5.532148 -0.130169,2.147775 -0.520673,3.4494573 -0.390505,1.301682 -1.10643,1.8874388 -0.715925,0.5206728 -1.822355,0.5206728 -1.366766,0 -2.212859,-0.7159251 -0.781009,-0.715925 -1.236598,-2.5382798 -0.390504,-1.822355 -0.520673,-4.881307 -0.130168,-3.124037 -0.130168,-7.810092 0,-4.686055 0.130168,-7.745008 0.130169,-3.124037 0.520673,-4.946392 0.455589,-1.822354 1.236598,-2.538279 0.846093,-0.715925 2.212859,-0.715925 1.757271,0 2.53828,1.43185 0.781009,1.43185 0.781009,5.40198 z" /></g></g><path
         inkscape:connector-curvature="0"
         id="path875"
         style="fill:#ffffff;fill-opacity:1;fill-rule:nonzero;stroke:none"
         d="m 788.281,677.238 c -12.129,1.633 -8.418,21.852 3.035,20.043 12.258,-1.941 9.454,-21.703 -3.035,-20.043 z m 113.535,80.602 c -0.722,-3.629 -4.707,-3.75 -6.679,-7.289 -8.321,-0.801 -15.547,5.277 -11.465,13.84 4.922,10.328 20.371,4.48 18.144,-6.551 z m 123.844,-78.93 c -1.85,7.75 -11.82,14.442 -17.37,19.488 -10.099,9.161 -19.52,19.122 -29.267,28.672 -9.921,9.731 -19.824,19.461 -29.628,29.321 -3.79,3.808 -7.168,8.179 -11.211,11.711 -5.079,4.418 -11.629,1.207 -17.539,1.269 -4.852,8.809 -14.422,19.078 -24.715,19.367 -4.27,0.121 -9.348,0.942 -13.391,-0.816 -3.418,-1.492 -1.062,-3.492 -5.137,-0.012 -3.281,2.77 -6.445,5.66 -9.55,8.621 -9.247,8.809 -18.543,17.899 -26.973,27.489 -8.289,9.441 -18.113,8.011 -29.883,7.261 -27.637,-1.769 -55.234,-0.031 -82.891,-0.5 -6.296,-0.109 -15.527,-2.59 -20.175,1.778 -5.274,4.953 -10.528,9.941 -15.684,15.019 -5.137,5.094 -10.195,10.281 -15.058,15.633 -4.61,5.059 -2.188,15.937 -2.11,22.687 0.762,58.262 -1.086,116.632 0.938,174.842 0.422,12.05 -5.567,16.73 -14.024,24.47 -11.328,10.36 -22.058,21.45 -32.871,32.34 -0.137,-6.92 -0.293,-13.83 -0.476,-20.74 -0.168,-6.27 8.203,-11.26 12.722,-15.37 6.36,-5.8 14.746,-11.99 15.254,-21.19 0.547,-9.85 -0.683,-19.94 -0.683,-29.86 V 886.82 c 0,-8.41 -2.852,-19.281 0.5,-27.3 3.699,-8.879 13.64,-15.348 20.574,-21.551 7.168,-6.41 13.222,-13.938 20,-20.75 8.652,-8.68 18.281,-7.071 29.883,-6.321 23.085,1.493 46.484,0.352 69.589,0.352 10.02,0 20.782,2.41 30.664,0 9.961,-2.398 17.344,-17.078 24.524,-23.75 4.871,-4.531 9.922,-8.879 14.324,-13.879 -2.656,-5.019 -3.672,-10.98 -3.183,-16.621 0.957,-11.172 11.972,-23.711 23.242,-25.551 6.504,-1.058 12.441,-1.679 18.093,1.961 4.954,3.199 9.067,7.5 12.551,12.219 3.406,4.641 5.606,6.121 11.836,4.922 4.649,-0.891 8.692,-5.442 11.824,-8.66 16.848,-17.34 33.246,-35.262 51.067,-51.641 8.476,-7.781 16.194,-12.32 18.764,-23.48 3.03,-13.188 0.14,-119.122 0.1,-161.122 -5.95,1.223 -139.177,127.68 -144.157,132.672 -3.789,3.77 -40.996,28.149 -45.528,33.16 -1.992,2.219 -5.019,3.782 -3.156,6.211 1.184,1.52 1.321,3.688 1.36,5.528 0.207,10.453 -1.993,17.691 -9.7,25.172 -7.254,7.07 -17.105,8.8 -26.902,7.711 -7.754,-4.782 -16.035,-9.903 -19.863,-18.571 -7.481,-16.883 6.523,-39.722 25.351,-39.722 h 8.809 c 4.062,0 5.742,3.742 10.586,1.519 9.004,-4.117 200.7,-175.957 200.7,-175.957 l -0.13,-123.141 c 0,-4.531 0.1,-3.64 4.96,-3.64 1.15,0 14.16,-0.121 14.16,0.101 0,0 0.39,315.981 -1.12,322.219" /><path
         inkscape:connector-curvature="0"
         id="path877"
         style="fill:#ffffff;fill-opacity:1;fill-rule:nonzero;stroke:none"
         d="m 897.129,668.75 c -12.441,-8.488 -22.188,17.68 -5.625,18.66 9.98,0.578 13.484,-13.301 5.625,-18.66 z m -99.082,105.762 c -4.5,-5.762 -14.414,-6.172 -17.051,1.539 -3.34,4.918 3.711,12.129 6.074,12.75 7.696,1.988 16.407,-7.371 10.977,-14.289 z m 121.808,-87.434 c -4.164,7.453 -13.644,19.051 -22.921,19.113 -4.551,0.028 -9.825,0.93 -14.161,-0.812 -3.73,-1.488 -1.21,-3.629 -5.515,0.211 -2.695,2.398 -5.363,4.84 -8,7.301 -9.68,9.007 -19.031,18.359 -28.32,27.781 -5.059,5.137 -10.098,10.297 -15.157,15.43 -2.539,2.57 -5.078,5.136 -7.617,7.679 -3.789,3.797 -1.465,3.77 -0.144,8.321 2.878,9.929 -0.852,20.128 -7.727,27.457 -7.754,8.25 -17.156,10.953 -28.164,7.961 -7.383,-2 -12.957,-7.051 -16.973,-13.411 -3.926,-6.218 -3.972,-5.308 -11.328,-5.308 -12.441,0 -24.98,0.398 -37.402,-0.352 -8.946,-0.539 -22.344,-3.277 -30.391,1.852 -8.34,5.328 -14.07,14.668 -21.023,21.59 -18.188,18.109 -35.735,37.058 -54.035,54.961 -0.352,-5.543 -0.704,-11.071 -0.989,-16.622 -0.371,-7.558 1.223,-9.16 6.313,-14.851 9.004,-10.078 19.09,-19.309 28.699,-28.797 9.277,-9.184 18.555,-18.344 27.832,-27.512 l 7.383,-7.289 c 3.164,-3.133 3.926,-2.222 8.125,-1.98 6.308,0.371 12.644,0.429 18.965,0.187 1.992,-0.078 3.984,-0.199 5.976,-0.347 4.485,-0.371 2.813,-3.059 2.852,-6.922 0.097,-6.758 0.183,-13.539 0.254,-20.309 0.136,-13.961 0.222,-27.922 0.285,-41.879 0.113,-28.851 0.098,-57.679 0.058,-86.519 -0.031,-26.512 1.129,-53.34 -0.382,-79.801 -0.457,-8.09 -3.106,-20.59 2.187,-27.59 1.336,-1.781 2.891,-3.531 4.492,-5.269 5.293,3.207 10.489,6.789 15.782,10.179 -2.871,4.188 -3.907,8.629 -3.704,15.598 1.731,59.051 0.688,118.18 0.969,177.25 0.059,14.531 0.164,29.031 0.321,43.543 0.089,7.156 0.175,14.308 0.285,21.449 6.953,1.399 14.218,0.469 21.25,0.52 5.117,0.039 9.14,-8.02 12.773,-11.852 3.535,-3.73 8.809,-7.437 13.906,-7.527 5.301,-0.09 11.27,-0.59 16.309,1.449 4.504,1.82 13.867,-10.051 17.512,-13.57 10.242,-9.871 20.203,-20.02 30.144,-30.18 4.981,-5.082 9.942,-10.172 14.922,-15.231 4.016,-4.07 -1.035,-10.019 -0.605,-15.96 0.898,-12.641 7.851,-20.09 18.359,-26.961 4.734,-3.11 12.324,-1.52 17.871,-1.52 4.551,0 12.942,8.051 15.781,11.262 5.926,6.719 9.532,19.07 4.953,27.277" /><path
         inkscape:connector-curvature="0"
         id="path879"
         style="fill:#ffffff;fill-opacity:1;fill-rule:nonzero;stroke:none"
         d="m 780.391,867.879 c 3.203,13.582 23.652,5.152 18.691,-5.981 -4.551,-10.25 -21.426,-5.668 -18.691,5.981 z M 629.824,1219.65 c 20.547,-20.22 40.938,-40.61 61.453,-60.86 10.813,-10.67 5.942,-25.59 5.942,-39.47 0,-19.3 0,-38.58 0,-57.87 0,-51.37 0,-102.731 0,-154.098 v -3.051 c 10.261,-11.09 39.761,-46.571 53.933,-49.16 2.453,-0.45 11.016,2.769 12.168,-1.192 1.243,-4.359 2.371,-5.668 5.801,-8.89 13.887,-13.008 33.184,-10.868 44.942,4.621 5.859,7.73 7.082,17.742 2.871,26.648 -2.715,5.774 -13.262,18.262 -20.45,18.262 -5.39,0 -12.675,1.601 -17.089,-1.668 -4.434,-3.274 -9.075,-6.41 -12.715,-10.613 -4.035,-4.637 -2.879,-7.149 -9.051,-7.149 -3.828,0 -5.649,-0.691 -8.43,1.969 -4.386,4.191 -8.801,8.359 -13.125,12.621 -6.316,6.23 -18.301,13.219 -19.844,22.559 -1.75,10.632 0.418,21.793 0.418,32.543 0,8.187 0,16.378 0,24.558 0,48.3 0,96.59 0,144.87 0,13.94 0,27.88 0,41.82 0,3.04 -3.113,4.52 -5.144,6.58 -9.426,9.55 -18.828,19.12 -28.25,28.67 -17.707,17.93 -35.899,35.35 -53.606,53.26 0.379,-8.3 0.176,-16.65 0.176,-24.96" /><path
         inkscape:connector-curvature="0"
         id="path881"
         style="fill:#ffffff;fill-opacity:1;fill-rule:nonzero;stroke:none"
         d="m 890.938,833.129 c -11.973,1.812 -10.176,20.973 2.382,19.422 12.539,-1.602 9.832,-21.27 -2.382,-19.422 z m -11.387,36.25 c -11.328,-5.68 -20.86,-21.848 -15.977,-34.438 6.035,-15.312 25.403,-28.961 41.121,-18.543 14.856,9.852 22.961,28.063 10.703,43.434 -8.796,11.047 -22.644,16.168 -35.847,9.547" /><path
         inkscape:connector-curvature="0"
         id="path883"
         style="fill:#ffffff;fill-opacity:1;fill-rule:nonzero;stroke:none"
         d="m 901.816,1006.76 c -1.464,-9.631 -18.203,-11.311 -19.421,1.21 -1.274,13.03 21.558,12.81 19.421,-1.21 z m -132.558,21.5 c 0,-15.06 12.207,-27.27 27.265,-27.27 2.364,0 4.61,0.4 6.79,0.95 l -0.461,-0.65 c 5.117,-5.349 18.808,-2.071 25.488,-2.11 9.375,-0.051 18.75,-0.391 28.105,-0.68 4.422,-0.141 8.098,1.172 9.961,-2.93 2.239,-4.941 6.328,-8.5 10.645,-11.582 15.222,-10.84 30.762,-2.179 40.676,11.282 11.101,15.08 -1.321,31.6 -14.563,39.89 -7.851,4.91 -19.949,2.48 -26.875,-2.89 -4.062,-3.15 -7.668,-6.88 -10.469,-11.2 -3.164,-4.9 -13.34,-2.71 -19.16,-2.79 -5.84,-0.08 -11.68,-0.16 -17.5,0.01 -2.234,0.06 -4.453,0.17 -6.68,0.33 l -0.507,0.07 c 1.125,2.98 1.816,6.18 1.816,9.57 0,15.06 -12.207,27.26 -27.266,27.26 -15.058,0 -27.265,-12.2 -27.265,-27.26" /><path
         inkscape:connector-curvature="0"
         id="path885"
         style="fill:#ffffff;fill-opacity:1;fill-rule:nonzero;stroke:none"
         d="m 886.934,926.57 c 0,5.2 4.187,9.41 9.375,9.442 h 0.136 c 5.196,-0.051 9.395,-4.25 9.395,-9.442 0,-5.199 -4.246,-9.461 -9.461,-9.461 -5.207,0 -9.445,4.262 -9.445,9.461 z m 10.586,-31.511 1.464,0.152 c 12.852,1.059 23.438,9.719 27.305,21.57 l 0.274,0.84 c 0.363,1.211 0.703,2.41 0.917,3.68 l 0.235,2.371 c 0.098,0.969 0.293,1.906 0.293,2.898 0,4.461 -0.938,8.68 -2.598,12.508 -0.625,3.543 45.403,44.113 45.403,44.113 0,0 0.718,52.589 0.718,62.459 11.594,3.81 22.785,15.75 22.785,28.64 0,16.03 -13.007,29.04 -29.043,29.04 -16.054,0 -29.043,-13.01 -29.043,-29.04 0,-12 7.266,-22.29 17.637,-26.72 0.051,-7.19 -0.929,-57.351 -0.929,-57.351 0,0 -34.969,-30 -42.208,-35.617 -4.324,2.218 -9.148,3.589 -14.351,3.589 -17.473,0 -31.613,-14.14 -31.613,-31.621 0,-14.32 9.57,-26.281 22.629,-30.172 l 1.316,-0.41 2.441,-0.519 c 1.309,-0.239 2.618,-0.367 3.953,-0.399 l 1.274,-0.129 1.141,0.118" /><path
         inkscape:connector-curvature="0"
         id="path887"
         style="fill:#ffffff;fill-opacity:1;fill-rule:nonzero;stroke:none"
         d="m 758.059,1085.72 c 0,-4.62 -3.743,-8.36 -8.352,-8.36 -4.629,0 -8.379,3.74 -8.379,8.36 0,4.61 3.75,8.37 8.379,8.37 4.609,0 8.352,-3.76 8.352,-8.37 z m 22.402,-152.072 c 0,4.622 3.769,8.372 8.367,8.372 4.629,0 8.36,-3.75 8.36,-8.372 0,-4.609 -3.731,-8.359 -8.36,-8.359 -4.598,0 -8.367,3.75 -8.367,8.359 z m -17.219,27.18 v 100.542 c 8.582,4.78 14.446,13.84 14.446,24.35 0,15.46 -12.52,28 -27.981,28 -15.469,0 -28.008,-12.54 -28.008,-28 0,-13.28 9.258,-24.33 21.668,-27.21 V 942.762 c -0.984,-2.871 17.473,-5.903 17.473,-9.114 0,-15.457 12.539,-27.988 27.988,-27.988 15.469,0 27.988,12.531 27.988,27.988 0,15.473 -12.519,28.012 -27.988,28.012 -2.226,0 -23.496,-0.34 -25.586,-0.832" /><path
         inkscape:connector-curvature="0"
         id="path889"
         style="fill:#87cf47;fill-opacity:1;fill-rule:nonzero;stroke:none"
         d="m 1608.53,718.75 h -9.56 c 0.04,-8.418 -2.98,-19.352 -8.07,-29.199 -5.03,-9.891 -12.13,-18.731 -18.99,-23.61 l -436.92,-314.48 c -6.62,-4.82 -16.36,-7.621 -26.17,-7.59 -9.47,-0.031 -18.81,2.57 -25.29,7.09 l -457.229,315.949 0.371,-0.262 c -6.922,4.731 -14.102,13.391 -19.184,23.153 -5.14,9.73 -8.187,20.558 -8.144,28.949 v 957.63 c 0.004,7.88 3.203,15 8.429,20.24 5.243,5.23 12.368,8.43 20.247,8.43 h 942.27 c 7.88,0 15,-3.2 20.25,-8.43 5.22,-5.24 8.42,-12.36 8.43,-20.24 V 718.75 h 9.56 9.55 v 957.63 c -0.03,26.35 -21.44,47.75 -47.79,47.79 H 628.02 c -26.348,-0.04 -47.754,-21.44 -47.793,-47.79 V 718.75 c 0.043,-12.641 4.074,-25.82 10.332,-37.828 6.32,-11.973 14.867,-22.781 25.25,-30 l -0.375,0.258 457.226,-315.942 c 10.52,-7.218 23.38,-10.457 36.16,-10.488 13.24,0.031 26.59,3.512 37.34,11.191 l 436.92,314.489 c 10.21,7.402 18.62,18.332 24.84,30.398 6.16,12.094 10.12,25.301 10.16,37.922 h -9.55" /></g></g></svg>
