# Blender v2.79 (sub 0) OBJ File: 'rhombicuboctehedron2.blend'
# www.blender.org
mtllib rhombicuboctahedron.mtl
o Cube
v -1.000000 -1.000000 1.500000
v -1.000000 1.000000 1.500000
v 1.000000 -1.000000 1.500000
v 1.000000 1.000000 1.500000
v -1.500000 -1.000000 -1.000000
v -1.500000 1.000000 -1.000000
v -1.500000 -1.000000 1.000000
v -1.500000 1.000000 1.000000
v -1.000000 -1.000000 -1.500000
v -1.000000 1.000000 -1.500000
v 1.000000 -1.000000 -1.500000
v 1.000000 1.000000 -1.500000
v 1.500000 -1.000000 -1.000000
v 1.500000 1.000000 -1.000000
v 1.500000 -1.000000 1.000000
v 1.500000 1.000000 1.000000
v -1.000000 1.500000 -1.000000
v 1.000000 1.500000 -1.000000
v -1.000000 1.500000 1.000000
v 1.000000 1.500000 1.000000
v -1.000000 -1.500000 -1.000000
v 1.000000 -1.500000 -1.000000
v -1.000000 -1.500000 1.000000
v 1.000000 -1.500000 1.000000
vt 0.625385 0.010000
vt 0.913077 0.010000
vt 0.913077 0.323333
vt 0.625385 0.323333
vt 0.010000 0.010000
vt 0.297692 0.010000
vt 0.297692 0.323333
vt 0.010000 0.323333
vt 0.010000 0.343333
vt 0.297692 0.343333
vt 0.297692 0.656667
vt 0.010000 0.656667
vt 0.317692 0.010000
vt 0.605385 0.010000
vt 0.605385 0.323333
vt 0.317692 0.323333
vt 0.317692 0.343333
vt 0.605385 0.343333
vt 0.605385 0.656667
vt 0.317692 0.656667
vt 0.010000 0.676667
vt 0.297692 0.676667
vt 0.297692 0.990000
vt 0.010000 0.990000
vt 0.913077 0.656667
vt 0.913077 0.343333
vt 0.856154 0.343333
vt 0.856154 0.656667
vt 0.682308 0.853333
vt 0.635385 0.906667
vt 0.682308 0.906667
vt 0.625385 0.740000
vt 0.913077 0.740000
vt 0.913077 0.676667
vt 0.625385 0.676667
vt 0.759231 0.853333
vt 0.712308 0.906667
vt 0.759231 0.906667
vt 0.990000 0.323333
vt 0.990000 0.010000
vt 0.933077 0.010000
vt 0.933077 0.323333
vt 0.836154 0.853333
vt 0.789231 0.906667
vt 0.836154 0.906667
vt 0.625385 0.823333
vt 0.913077 0.823333
vt 0.913077 0.760000
vt 0.625385 0.760000
vt 0.682308 0.936667
vt 0.635385 0.990000
vt 0.682308 0.990000
vt 0.990000 0.343333
vt 0.933077 0.343333
vt 0.933077 0.656667
vt 0.990000 0.656667
vt 0.317692 0.990000
vt 0.605385 0.990000
vt 0.605385 0.926667
vt 0.317692 0.926667
vt 0.682308 0.343333
vt 0.625385 0.343333
vt 0.625385 0.656667
vt 0.682308 0.656667
vt 0.317692 0.740000
vt 0.605385 0.740000
vt 0.605385 0.676667
vt 0.317692 0.676667
vt 0.759231 0.656667
vt 0.759231 0.343333
vt 0.702308 0.343333
vt 0.702308 0.656667
vt 0.625385 0.980000
vt 0.672308 0.926667
vt 0.625385 0.926667
vt 0.317692 0.823333
vt 0.605385 0.823333
vt 0.605385 0.760000
vt 0.317692 0.760000
vt 0.779231 0.896667
vt 0.826154 0.843333
vt 0.779231 0.843333
vt 0.836154 0.656667
vt 0.836154 0.343333
vt 0.779231 0.343333
vt 0.779231 0.656667
vt 0.702308 0.896667
vt 0.749231 0.843333
vt 0.702308 0.843333
vt 0.317692 0.906667
vt 0.605385 0.906667
vt 0.605385 0.843333
vt 0.317692 0.843333
vt 0.625385 0.896667
vt 0.672308 0.843333
vt 0.625385 0.843333
vn 0.0000 0.0000 1.0000
vn -1.0000 0.0000 0.0000
vn 0.0000 0.0000 -1.0000
vn 1.0000 0.0000 0.0000
vn 0.0000 1.0000 0.0000
vn 0.0000 -1.0000 0.0000
vn -0.7071 0.7071 -0.0000
vn -0.5774 0.5774 0.5774
vn 0.0000 0.7071 0.7071
vn 0.5774 0.5774 0.5774
vn 0.7071 0.7071 0.0000
vn 0.5774 0.5774 -0.5774
vn 0.0000 0.7071 -0.7071
vn -0.5774 0.5774 -0.5774
vn -0.7071 0.0000 -0.7071
vn -0.7071 0.0000 0.7071
vn 0.7071 0.0000 0.7071
vn 0.7071 0.0000 -0.7071
vn -0.7071 -0.7071 -0.0000
vn -0.5774 -0.5774 0.5774
vn 0.0000 -0.7071 0.7071
vn 0.5774 -0.5774 0.5774
vn 0.7071 -0.7071 0.0000
vn 0.5774 -0.5774 -0.5774
vn 0.0000 -0.7071 -0.7071
vn -0.5774 -0.5774 -0.5774
usemtl Material.001
s off
f 3/1/1 4/2/1 2/3/1 1/4/1
f 7/5/2 8/6/2 6/7/2 5/8/2
f 9/9/3 10/10/3 12/11/3 11/12/3
f 13/13/4 14/14/4 16/15/4 15/16/4
f 20/17/5 18/18/5 17/19/5 19/20/5
f 22/21/6 24/22/6 23/23/6 21/24/6
f 6/25/7 8/26/7 19/27/7 17/28/7
f 8/29/8 2/30/8 19/31/8
f 2/32/9 4/33/9 20/34/9 19/35/9
f 4/36/10 16/37/10 20/38/10
f 16/39/11 14/40/11 18/41/11 20/42/11
f 14/43/12 12/44/12 18/45/12
f 12/46/13 10/47/13 17/48/13 18/49/13
f 17/50/14 10/51/14 6/52/14
f 6/53/15 10/54/15 9/55/15 5/56/15
f 1/57/16 2/58/16 8/59/16 7/60/16
f 3/61/17 15/62/17 16/63/17 4/64/17
f 11/65/18 12/66/18 14/67/18 13/68/18
f 7/69/19 5/70/19 21/71/19 23/72/19
f 7/73/20 23/74/20 1/75/20
f 3/76/21 1/77/21 23/78/21 24/79/21
f 15/80/22 3/81/22 24/82/22
f 13/83/23 15/84/23 24/85/23 22/86/23
f 13/87/24 22/88/24 11/89/24
f 9/90/25 11/91/25 22/92/25 21/93/25
f 9/94/26 21/95/26 5/96/26
